/* XPM */
static char * logo_xpm[] = {
"32 32 174 2",
"  	c None",
". 	c #000000",
"+ 	c #000033",
"@ 	c #000066",
"# 	c #000099",
"$ 	c #0000CC",
"% 	c #0000FF",
"& 	c #003300",
"* 	c #003333",
"= 	c #003366",
"- 	c #003399",
"; 	c #0033CC",
"> 	c #0033FF",
", 	c #006600",
"' 	c #006633",
") 	c #006666",
"! 	c #006699",
"~ 	c #0066CC",
"{ 	c #0066FF",
"] 	c #009900",
"^ 	c #009933",
"/ 	c #009966",
"( 	c #009999",
"_ 	c #0099CC",
": 	c #0099FF",
"< 	c #00CC00",
"[ 	c #00CC33",
"} 	c #00CC66",
"| 	c #00CC99",
"1 	c #00CCCC",
"2 	c #00CCFF",
"3 	c #00FF00",
"4 	c #00FF33",
"5 	c #00FF66",
"6 	c #00FF99",
"7 	c #00FFCC",
"8 	c #00FFFF",
"9 	c #330000",
"0 	c #330033",
"a 	c #330066",
"b 	c #330099",
"c 	c #3300CC",
"d 	c #3300FF",
"e 	c #333300",
"f 	c #333333",
"g 	c #333366",
"h 	c #333399",
"i 	c #3333CC",
"j 	c #3333FF",
"k 	c #336600",
"l 	c #336633",
"m 	c #336666",
"n 	c #336699",
"o 	c #3366CC",
"p 	c #3366FF",
"q 	c #339900",
"r 	c #339933",
"s 	c #339966",
"t 	c #339999",
"u 	c #3399CC",
"v 	c #3399FF",
"w 	c #33CC00",
"x 	c #33CC33",
"y 	c #33CC66",
"z 	c #33CC99",
"A 	c #33CCCC",
"B 	c #33CCFF",
"C 	c #33FF00",
"D 	c #33FF33",
"E 	c #33FF66",
"F 	c #33FF99",
"G 	c #33FFCC",
"H 	c #33FFFF",
"I 	c #660000",
"J 	c #660033",
"K 	c #660066",
"L 	c #660099",
"M 	c #6600CC",
"N 	c #6600FF",
"O 	c #663300",
"P 	c #663333",
"Q 	c #663366",
"R 	c #663399",
"S 	c #6633CC",
"T 	c #6633FF",
"U 	c #666600",
"V 	c #666633",
"W 	c #666666",
"X 	c #666699",
"Y 	c #6666CC",
"Z 	c #6666FF",
"` 	c #669900",
" .	c #669933",
"..	c #669966",
"+.	c #669999",
"@.	c #6699CC",
"#.	c #6699FF",
"$.	c #66CC00",
"%.	c #66CC33",
"&.	c #66CC66",
"*.	c #66CC99",
"=.	c #66CCCC",
"-.	c #66CCFF",
";.	c #66FF00",
">.	c #66FF33",
",.	c #66FF66",
"'.	c #66FF99",
").	c #66FFCC",
"!.	c #66FFFF",
"~.	c #990000",
"{.	c #990033",
"].	c #990066",
"^.	c #990099",
"/.	c #9900CC",
"(.	c #9900FF",
"_.	c #993300",
":.	c #993333",
"<.	c #993366",
"[.	c #993399",
"}.	c #9933CC",
"|.	c #9933FF",
"1.	c #996600",
"2.	c #996633",
"3.	c #996666",
"4.	c #996699",
"5.	c #9966CC",
"6.	c #9966FF",
"7.	c #999900",
"8.	c #999933",
"9.	c #999966",
"0.	c #999999",
"a.	c #9999CC",
"b.	c #9999FF",
"c.	c #99CC00",
"d.	c #99CC33",
"e.	c #99CC66",
"f.	c #99CC99",
"g.	c #99CCCC",
"h.	c #99CCFF",
"i.	c #99FF00",
"j.	c #99FF33",
"k.	c #99FF66",
"l.	c #99FF99",
"m.	c #99FFCC",
"n.	c #99FFFF",
"o.	c #CC0000",
"p.	c #CC0033",
"q.	c #CC0066",
"r.	c #CC0099",
"s.	c #CC00CC",
"t.	c #CC00FF",
"u.	c #CC3300",
"v.	c #CC3333",
"w.	c #CC3366",
"x.	c #CC3399",
"y.	c #CC33CC",
"z.	c #CC33FF",
"A.	c #CC6600",
"B.	c #CC6633",
"C.	c #CC6666",
"D.	c #CC6699",
"E.	c #CC66CC",
"F.	c #CC66FF",
"G.	c #CC9900",
"H.	c #CC9933",
"I.	c #CC9966",
"J.	c #CC9999",
"K.	c #CC99CC",
"L.	c #CC99FF",
"M.	c #CCCC00",
"N.	c #CCCC33",
"O.	c #CCCC66",
"P.	c #CCCC99",
"Q.	c #CCCCCC",
"                                                                ",
"                        o.o.o.o.o.o.o.o.                        ",
"                      o.~.~.~.~.~.~.~.~.o.o.                    ",
"                    o.~.~.~.~.~.~.~.~.~.~.o.                    ",
"                  o.~.~.~.~.~.~.~.~.~.~.~.o.Q.Q.                ",
"                  o.~.~.~.~.~.~.o.o.o.~.~.o.Q.Q.                ",
"                o.~.~.~.~.~.~.o.Q.Q.Q.o.o.o.Q.Q.                ",
"                o.~.~.~.~.~.o.Q.Q.Q.Q.Q.o.o.Q.Q.                ",
"                o.~.~.~.~.~.o.Q.Q.Q.      Q.Q.Q.                ",
"                o.~.~.~.~.~.o.Q.Q.          Q.Q.                ",
"                o.~.~.~.~.~.o.Q.Q.                              ",
"                o.~.~.~.~.~.o.Q.Q.                              ",
"            o.o.o.~.~.~.~.~.o.o.o.o.o.o.                        ",
"            o.~.~.~.~.~.~.~.~.~.~.~.~.o.                        ",
"            o.~.~.~.~.~.~.~.~.~.~.~.~.o.Q.Q.                    ",
"            o.~.~.~.~.~.~.~.~.~.~.~.~.o.Q.Q.                    ",
"            o.o.o.~.~.~.~.~.o.o.o.o.o.o.Q.Q.                    ",
"                o.~.~.~.~.~.o.Q.Q.Q.Q.Q.Q.Q.                    ",
"                o.~.~.~.~.~.o.Q.Q.Q.Q.Q.Q.Q.                    ",
"              o.~.~.~.~.~.o.Q.Q.Q.                              ",
"            o.~.~.~.~.~.o.o.Q.Q.Q.                              ",
"          o.~.~.~.~.~.o.o.o.o.o.o.o.o.o.o.o.o.                  ",
"          o.~.~.~.~.~.~.~.~.~.~.~.~.~.~.~.~.o.                  ",
"          o.~.~.~.~.~.~.~.~.~.~.~.~.~.~.~.~.o.Q.Q.              ",
"          o.~.~.~.~.~.~.~.~.~.~.~.~.~.~.~.~.o.Q.Q.              ",
"          o.o.o.o.o.o.o.o.o.o.o.o.o.o.o.o.o.o.Q.Q.              ",
"              Q.Q.Q.Q.Q.Q.Q.Q.Q.Q.Q.Q.Q.Q.Q.Q.Q.Q.              ",
"              Q.Q.Q.Q.Q.Q.Q.Q.Q.Q.Q.Q.Q.Q.Q.Q.Q.Q.              ",
"                                                                ",
"                                                                ",
"                                                                ",
"                                                                "};
